<svg version="1.1" width="20" height="17" viewBox="-1 -1 20 17" xmlns="http://www.w3.org/2000/svg" xmlns:xlink="http://www.w3.org/1999/xlink">
  <!-- Exported by Scratch - http://scratch.mit.edu/ -->
  <path id="ID0.2627194537781179" fill="#646464" d="M 445.020 461.020 C 438.877 461.020 432.736 458.677 428.049 453.991 C 418.677 444.618 418.677 429.423 428.049 420.050 C 471.868 376.229 496.001 317.970 496.001 256 C 496.001 194.031 471.868 135.771 428.049 91.951 C 418.677 82.578 418.677 67.382 428.049 58.010 C 437.421 48.638 452.618 48.638 461.990 58.010 C 514.875 110.896 544.001 181.210 544.001 256 C 544.001 330.791 514.875 401.104 461.990 453.990 C 457.304 458.677 451.162 461.020 445.020 461.020 Z M 359.765 415.765 C 353.622 415.765 347.481 413.422 342.794 408.736 C 333.422 399.364 333.422 384.168 342.794 374.795 C 408.297 309.292 408.297 202.710 342.794 137.207 C 333.422 127.834 333.422 112.638 342.794 103.266 C 352.166 93.895 367.363 93.894 376.735 103.266 C 417.532 144.062 440 198.304 440 256 C 440 313.695 417.532 367.938 376.735 408.735 C 372.049 413.422 365.907 415.765 359.765 415.765 Z M 274.510 370.510 C 268.367 370.510 262.226 368.167 257.539 363.481 C 248.166 354.108 248.166 338.913 257.539 329.540 C 298.089 288.990 298.089 223.011 257.539 182.462 C 248.166 173.089 248.166 157.893 257.539 148.521 C 266.912 139.149 282.107 139.149 291.480 148.521 C 350.745 207.786 350.745 304.217 291.480 363.482 C 286.794 368.167 280.652 370.510 274.510 370.510 Z M 200.666 39.334 C 213.500 26.500 224 30.850 224 49 L 224 463 C 224 481.150 213.500 485.499 200.666 472.665 L 80 352 L 0 352 L 0 160 L 80 160 L 200.666 39.334 Z " transform="matrix(0.03473365306854248, 0, 0, 0.03473365306854248, 0.15, -0.9)"/>
</svg>