<svg version="1.1" width="14" height="17" viewBox="-1 -1 14 17" xmlns="http://www.w3.org/2000/svg" xmlns:xlink="http://www.w3.org/1999/xlink">
  <!-- Exported by Scratch - http://scratch.mit.edu/ -->
  <path id="ID0.2627194537781179" fill="#646464" d="M 461.900 454 Z M 376.600 408.650 Z M 274.510 370.510 C 268.367 370.510 262.226 368.167 257.539 363.481 C 248.166 354.108 248.166 338.913 257.539 329.540 C 298.089 288.990 298.089 223.011 257.539 182.462 C 248.166 173.089 248.166 157.893 257.539 148.521 C 266.912 139.149 282.107 139.149 291.480 148.521 C 350.745 207.786 350.745 304.217 291.480 363.482 C 286.794 368.167 280.652 370.510 274.510 370.510 Z M 200.666 39.334 C 213.500 26.500 224 30.850 224 49 L 224 463 C 224 481.150 213.500 485.499 200.666 472.665 L 80 352 L 0 352 L 0 160 L 80 160 L 200.666 39.334 Z " transform="matrix(0.03473365306854248, 0, 0, 0.03473365306854248, 0.15, -0.9)"/>
</svg>