<svg version="1.1" width="82" height="82" viewBox="-1 -1 82 82" xmlns="http://www.w3.org/2000/svg" xmlns:xlink="http://www.w3.org/1999/xlink">
  <!-- Exported by Scratch - http://scratch.mit.edu/ -->
  <path id="ID0.16447909316048026" fill="#3A3A3A" stroke="none" d="M 246 123 C 259.519 123 271.769 128.491 280.639 137.361 C 289.509 146.231 295 158.481 295 172 C 295 185.519 289.509 197.769 280.639 206.639 C 271.769 215.509 259.519 221 246 221 C 232.481 221 220.231 215.509 211.361 206.639 C 202.491 197.769 197 185.519 197 172 C 197 158.481 202.491 146.231 211.361 137.361 C 220.231 128.491 232.481 123 246 123 Z " transform="matrix(0.8163265585899353, 0, 0, 0.8163265585899353, -159.85, -99.45)"/>
  <path id="ID0.015490506310015917" fill="#525252" stroke="none" stroke-linecap="round" d="M 240 181 L 253 189.400 L 240 198 L 240 181 Z " transform="matrix(2.5383172035217285, 0, 0, 2.5383172035217285, -579.9, -440.35)"/>
</svg>