<svg version="1.1" width="21" height="21" viewBox="-1 -1 21 21" xmlns="http://www.w3.org/2000/svg" xmlns:xlink="http://www.w3.org/1999/xlink">
  <!-- Exported by Scratch - http://scratch.mit.edu/ -->
  <path id="ID0.134450011420995" fill="#494949" stroke="none" d="M 231 169 L 250 169 L 250 188 L 231 188 L 231 169 Z " transform="matrix(1, 0, 0, 1, -230.05, -168.2)"/>
  <path id="ID0.3512473893351853" fill="#646464" d="M 256 128 L 256 0 L 96 160 L 256 320 L 256 192 C 362.078 192 448 277.922 448 384 C 448 490.078 362.078 576 256 576 C 149.922 576 64 490.078 64 384 L 0 384 C 0 525.438 114.562 640 256 640 C 397.438 640 512 525.438 512 384 C 512 242.562 397.438 128 256 128 Z " transform="matrix(0.02734375, 0, 0, 0.02734375, 3.05, 1.3)"/>
</svg>